<?xml version="1.0" standalone="no"?>
<!DOCTYPE svg PUBLIC "-//W3C//DTD SVG 20010904//EN"
 "http://www.w3.org/TR/2001/REC-SVG-20010904/DTD/svg10.dtd">
<svg version="1.0" xmlns="http://www.w3.org/2000/svg"
 width="1200.000000pt" height="1200.000000pt" viewBox="0 0 1200.000000 1200.000000"
 preserveAspectRatio="xMidYMid meet">

<g transform="translate(0.000000,1200.000000) scale(0.100000,-0.100000)"
fill="#000000" stroke="none">
<path d="M5933 7820 c-61 -37 -81 -116 -44 -176 20 -32 74 -64 110 -64 40 0
90 28 111 62 70 115 -62 249 -177 178z m114 -62 c31 -29 30 -71 -3 -97 -15
-12 -34 -21 -44 -21 -30 0 -70 39 -70 69 0 62 71 92 117 49z"/>
<path d="M5718 7699 c-22 -12 -23 -32 -3 -49 30 -25 79 16 54 46 -13 16 -27
17 -51 3z"/>
<path d="M6233 7684 c-4 -11 1 -22 12 -30 24 -18 40 -18 55 1 10 12 10 18 0
30 -17 20 -59 19 -67 -1z"/>
<path d="M5593 7653 c-7 -2 -13 -16 -13 -29 0 -19 5 -24 24 -24 28 0 51 24 42
45 -5 15 -29 18 -53 8z"/>
<path d="M6373 7653 c-20 -8 -15 -41 8 -53 27 -15 49 -6 49 19 0 16 -28 44
-42 40 -2 0 -9 -3 -15 -6z"/>
<path d="M5482 7592 c-9 -6 -6 -14 13 -32 21 -20 25 -21 31 -6 13 35 -13 57
-44 38z"/>
<path d="M6484 7575 c-12 -30 2 -35 25 -11 l24 26 -22 0 c-12 0 -24 -7 -27
-15z"/>
<path d="M5284 7556 c-95 -42 -107 -167 -22 -229 53 -39 152 -16 183 43 30 58
8 152 -42 178 -34 19 -87 22 -119 8z m99 -74 c9 -9 17 -29 17 -47 0 -64 -75
-91 -120 -43 -34 37 -20 87 31 106 27 10 46 6 72 -16z"/>
<path d="M6635 7563 c-57 -16 -95 -67 -95 -128 0 -122 146 -177 224 -84 36 42
42 89 20 135 -30 60 -92 92 -149 77z m82 -85 c30 -28 29 -59 -1 -88 -47 -43
-116 -18 -116 43 0 63 70 90 117 45z"/>
<path d="M5745 7376 c-17 -7 -36 -20 -44 -29 -7 -10 -22 -17 -33 -17 -33 0
-97 -42 -118 -77 -11 -19 -27 -33 -38 -33 -26 0 -69 -35 -87 -70 -8 -16 -15
-49 -15 -75 0 -25 -4 -45 -10 -45 -17 0 -59 -74 -66 -116 -4 -31 -1 -53 15
-88 20 -47 20 -47 1 -79 -24 -39 -26 -110 -5 -151 8 -15 15 -47 15 -70 0 -55
29 -106 75 -133 21 -11 43 -34 50 -50 15 -36 69 -82 104 -89 15 -3 34 -18 44
-35 40 -70 167 -88 246 -36 79 52 76 30 79 590 l3 498 -22 40 c-38 66 -124 95
-194 65z m33 -78 c18 -18 15 -46 -7 -57 -10 -6 -21 -8 -24 -5 -3 3 -23 12 -44
19 -33 12 -34 14 -12 15 14 0 34 9 44 20 21 23 27 24 43 8z m55 -129 c13 -21
-17 -83 -55 -110 -32 -23 -93 -35 -132 -25 -35 9 -86 54 -86 77 0 34 34 41 71
14 57 -43 92 -33 142 40 20 28 44 30 60 4z m-300 -130 c61 -32 106 -105 92
-149 -5 -16 -14 -20 -33 -18 -21 2 -30 11 -38 37 -14 42 -47 71 -83 71 l-26 0
24 19 c16 12 22 24 18 35 -8 19 14 21 46 5z m288 -88 c52 -53 29 -141 -42
-156 -59 -13 -82 55 -24 69 32 8 32 34 0 46 -31 12 -41 35 -25 55 20 24 59 18
91 -14z m-331 -166 c60 -31 99 -125 65 -158 -24 -24 -49 -7 -64 43 -9 31 -20
45 -42 54 -26 11 -28 14 -15 26 9 7 16 21 16 31 0 23 3 23 40 4z m341 -45 c29
-16 23 -47 -11 -65 -37 -19 -38 -30 -2 -47 19 -9 27 -21 27 -38 0 -21 -5 -26
-31 -28 -71 -7 -118 85 -74 141 19 23 46 42 68 46 2 1 12 -4 23 -9z m-157
-126 c31 -31 14 -60 -39 -66 -26 -3 -31 -8 -35 -38 -9 -63 -70 -48 -70 17 0
71 100 132 144 87z m55 -157 c29 -59 23 -103 -21 -153 -30 -34 -31 -34 -45
-14 -8 11 -25 20 -40 20 -26 0 -25 0 8 23 43 29 51 76 20 118 -26 34 -27 55
-3 68 25 14 53 -7 81 -62z"/>
<path d="M6123 7371 c-24 -11 -51 -34 -63 -53 -19 -32 -20 -49 -20 -530 0
-328 4 -506 11 -525 33 -88 153 -137 242 -99 18 7 46 29 63 48 17 19 42 38 56
41 36 9 76 44 96 82 9 19 32 44 51 57 53 36 76 73 77 126 1 26 9 64 18 84 22
50 20 95 -5 142 -19 36 -19 40 -5 71 19 38 21 117 5 148 -6 12 -23 34 -37 49
-20 22 -26 39 -26 75 -1 60 -31 105 -83 126 -21 8 -48 29 -61 47 -27 35 -78
70 -105 70 -10 0 -34 12 -53 26 -46 35 -106 41 -161 15z m142 -81 c10 -11 30
-20 44 -20 24 -1 23 -2 -9 -14 -19 -7 -42 -16 -51 -20 -9 -4 -22 1 -34 14 -17
19 -17 21 0 40 10 11 21 20 25 20 4 0 15 -9 25 -20z m-34 -135 c36 -61 83 -71
138 -31 18 14 39 22 47 19 23 -9 27 -43 7 -65 -66 -74 -191 -61 -243 24 -23
38 -25 59 -8 76 20 20 38 14 59 -23z m279 -125 c0 -11 7 -23 15 -26 24 -9 18
-21 -14 -27 -35 -7 -59 -30 -67 -65 -9 -37 -32 -54 -55 -41 -37 19 -12 111 39
146 56 38 82 42 82 13z m-242 -67 c13 -25 4 -43 -24 -53 -29 -11 -31 -36 -4
-45 54 -17 36 -84 -19 -70 -62 15 -92 74 -66 129 25 51 94 75 113 39z m276
-177 c-3 -7 3 -22 13 -31 15 -15 15 -19 3 -23 -27 -9 -60 -51 -60 -76 0 -30
-28 -49 -53 -35 -41 23 -7 121 55 159 39 23 49 25 42 6z m-328 -51 c90 -37 66
-175 -31 -175 -52 0 -59 54 -9 66 26 7 34 44 10 44 -16 0 -46 26 -46 40 0 9
28 40 36 40 3 0 20 -7 40 -15z m220 -136 c43 -41 40 -129 -4 -129 -26 0 -42
20 -42 52 0 24 -4 28 -28 28 -32 0 -52 16 -52 42 0 42 83 47 126 7z m-66 -105
c0 -9 -11 -29 -25 -46 -14 -16 -25 -37 -25 -46 1 -27 25 -64 51 -78 l24 -13
-28 -1 c-20 0 -30 -6 -34 -20 -8 -28 -18 -25 -49 15 -50 67 -41 154 22 204 20
16 31 18 45 10 10 -5 19 -17 19 -25z"/>
<path d="M5180 7275 c0 -20 5 -25 25 -25 14 0 25 1 25 3 0 2 -11 13 -25 25
l-25 22 0 -25z"/>
<path d="M6791 7274 c-22 -20 -23 -24 -8 -30 25 -9 47 3 47 25 0 30 -12 31
-39 5z"/>
<path d="M5120 7181 c-13 -25 -3 -51 21 -51 21 0 43 35 35 56 -8 20 -44 17
-56 -5z"/>
<path d="M6834 7175 c-8 -20 2 -44 21 -52 24 -8 39 12 31 41 -7 29 -43 36 -52
11z"/>
<path d="M5076 7058 c-17 -24 -6 -58 20 -58 22 0 40 46 24 65 -17 20 -26 19
-44 -7z"/>
<path d="M6882 7057 c-14 -17 -5 -54 16 -62 8 -3 22 1 31 9 12 12 12 20 3 41
-13 27 -33 32 -50 12z"/>
<path d="M4994 6881 c-46 -28 -64 -59 -64 -109 0 -79 53 -132 132 -132 64 0
128 65 128 130 0 41 -32 90 -71 110 -48 25 -85 25 -125 1z m119 -73 c22 -27
22 -49 -4 -82 -25 -32 -64 -34 -96 -4 -22 21 -30 62 -15 84 25 38 84 39 115 2z"/>
<path d="M6881 6882 c-37 -20 -71 -73 -71 -110 0 -40 28 -91 62 -112 88 -54
198 6 198 107 0 50 -18 82 -59 110 -41 28 -85 29 -130 5z m92 -53 c29 -15 37
-28 37 -60 0 -66 -83 -91 -123 -37 -25 34 -15 76 23 95 31 16 36 16 63 2z"/>
<path d="M5070 6535 c-18 -21 3 -68 28 -63 21 4 29 57 10 69 -18 12 -24 11
-38 -6z"/>
<path d="M6874 6504 c-8 -30 6 -47 32 -42 13 2 20 13 22 36 3 28 0 32 -22 32
-19 0 -27 -7 -32 -26z"/>
<path d="M5115 6410 c-4 -6 -4 -22 -1 -36 7 -28 43 -33 53 -8 12 32 -35 71
-52 44z"/>
<path d="M6828 6385 c-8 -19 -8 -28 2 -40 17 -21 27 -19 46 10 13 20 14 28 4
40 -18 22 -39 18 -52 -10z"/>
<path d="M5174 6285 c-4 -8 -3 -22 0 -31 6 -15 9 -14 31 6 13 13 22 27 19 31
-9 15 -44 10 -50 -6z"/>
<path d="M6780 6282 c0 -5 9 -17 21 -28 21 -19 21 -19 18 6 -4 23 -39 43 -39
22z"/>
<path d="M5262 6210 c-33 -21 -62 -71 -62 -110 0 -64 71 -130 139 -130 34 0
91 37 108 70 30 59 6 146 -49 176 -35 20 -99 17 -136 -6z m118 -60 c46 -46 4
-129 -58 -115 -17 3 -35 12 -41 18 -55 67 38 158 99 97z"/>
<path d="M6594 6210 c-41 -27 -58 -69 -51 -126 12 -109 143 -151 216 -69 52
60 48 138 -10 191 -30 27 -117 30 -155 4z m121 -65 c14 -13 25 -33 25 -45 0
-26 -43 -70 -68 -70 -11 0 -31 9 -46 21 -32 25 -34 66 -6 97 27 29 65 28 95
-3z"/>
<path d="M6475 5987 c-10 -25 1 -47 25 -47 25 0 25 8 0 40 -17 22 -19 23 -25
7z"/>
<path d="M5484 5969 c-19 -21 -19 -21 6 -18 14 2 26 12 28 22 5 23 -11 22 -34
-4z"/>
<path d="M5945 5941 c-68 -31 -93 -105 -60 -175 20 -41 63 -66 115 -66 52 0
95 25 115 66 54 114 -57 228 -170 175z m107 -68 c42 -38 10 -113 -48 -113 -62
0 -97 68 -57 112 20 23 80 24 105 1z"/>
<path d="M5572 5938 c-7 -7 -12 -15 -12 -19 0 -14 32 -39 50 -39 20 0 37 37
23 50 -16 15 -49 20 -61 8z"/>
<path d="M6362 5928 c-16 -16 -16 -45 1 -51 6 -2 22 0 35 4 17 6 22 15 20 31
-3 26 -36 36 -56 16z"/>
<path d="M5702 5888 c-7 -7 -12 -18 -12 -25 0 -15 47 -36 61 -27 12 7 12 54 0
54 -5 0 -15 2 -23 5 -7 3 -19 0 -26 -7z"/>
<path d="M7400 5805 l0 -95 1425 0 1425 0 0 95 0 95 -1425 0 -1425 0 0 -95z"/>
<path d="M6225 5869 c-9 -28 8 -43 38 -35 25 6 42 31 31 47 -3 5 -18 9 -34 9
-20 0 -31 -6 -35 -21z"/>
<path d="M1750 5785 l0 -95 1425 0 1425 0 0 95 0 95 -1425 0 -1425 0 0 -95z"/>
<path d="M5110 5185 c-151 -43 -238 -160 -228 -310 9 -135 72 -200 253 -261
186 -62 219 -87 217 -168 -1 -95 -62 -145 -177 -146 -62 0 -133 26 -196 71
-43 30 -69 22 -106 -36 -18 -27 -33 -53 -33 -57 0 -15 96 -78 150 -99 179 -68
358 -38 461 79 51 58 74 128 74 223 -1 67 -4 82 -31 125 -39 64 -102 105 -221
144 -171 56 -223 95 -223 167 0 40 32 87 73 106 61 29 140 22 229 -19 89 -42
94 -41 134 38 l24 48 -41 30 c-93 67 -249 95 -359 65z"/>
<path d="M6744 5190 c-149 -30 -248 -148 -247 -295 1 -82 20 -135 66 -183 42
-44 84 -65 219 -109 92 -29 120 -43 151 -73 32 -32 37 -44 37 -82 0 -89 -68
-148 -170 -148 -72 0 -112 12 -183 56 -73 45 -92 41 -134 -28 l-32 -53 27 -23
c89 -76 256 -123 374 -104 174 26 276 135 286 302 10 169 -56 239 -301 320
-126 41 -167 76 -167 142 0 83 60 128 169 128 48 0 72 -7 129 -36 39 -20 77
-34 85 -31 7 3 27 30 43 61 l29 57 -25 20 c-84 68 -238 102 -356 79z"/>
<path d="M5845 4868 l-240 -323 2 -53 c2 -93 -1 -92 265 -92 l228 0 0 -125 0
-125 70 0 70 0 0 125 0 124 63 3 62 3 3 68 3 67 -66 0 -65 0 0 325 0 325 -78
0 -77 0 -240 -322z m252 -325 c-2 -2 -75 -2 -161 -1 l-157 3 158 220 158 220
3 -219 c1 -120 1 -221 -1 -223z"/>
</g>
</svg>
