<?xml version="1.0" standalone="no"?>
<!DOCTYPE svg PUBLIC "-//W3C//DTD SVG 20010904//EN"
 "http://www.w3.org/TR/2001/REC-SVG-20010904/DTD/svg10.dtd">
<svg version="1.0" xmlns="http://www.w3.org/2000/svg"
 width="1200.000000pt" height="1200.000000pt" viewBox="0 0 1200.000000 1200.000000"
 preserveAspectRatio="xMidYMid meet">

<g transform="translate(0.000000,1200.000000) scale(0.100000,-0.100000)"
fill="#000000" stroke="none">
<path d="M5933 7820 c-61 -37 -81 -116 -44 -176 20 -32 74 -64 110 -64 40 0
90 28 111 62 70 115 -62 249 -177 178z m114 -62 c31 -29 30 -71 -3 -97 -15
-12 -34 -21 -44 -21 -30 0 -70 39 -70 69 0 62 71 92 117 49z"/>
<path d="M5718 7699 c-22 -12 -23 -32 -3 -49 30 -25 79 16 54 46 -13 16 -27
17 -51 3z"/>
<path d="M6233 7684 c-4 -11 1 -22 12 -30 24 -18 40 -18 55 1 10 12 10 18 0
30 -17 20 -59 19 -67 -1z"/>
<path d="M5593 7653 c-7 -2 -13 -16 -13 -29 0 -19 5 -24 24 -24 28 0 51 24 42
45 -5 15 -29 18 -53 8z"/>
<path d="M6373 7653 c-20 -8 -15 -41 8 -53 27 -15 49 -6 49 19 0 16 -28 44
-42 40 -2 0 -9 -3 -15 -6z"/>
<path d="M5482 7592 c-9 -6 -6 -14 13 -32 21 -20 25 -21 31 -6 13 35 -13 57
-44 38z"/>
<path d="M6484 7575 c-12 -30 2 -35 25 -11 l24 26 -22 0 c-12 0 -24 -7 -27
-15z"/>
<path d="M5284 7556 c-69 -31 -99 -109 -68 -172 36 -73 110 -97 182 -60 78 40
84 170 9 219 -36 23 -88 29 -123 13z m99 -74 c9 -9 17 -29 17 -47 0 -64 -75
-91 -120 -43 -34 37 -20 87 31 106 27 10 46 6 72 -16z"/>
<path d="M6635 7563 c-57 -15 -95 -66 -95 -128 0 -89 77 -148 162 -124 44 12
85 57 94 104 15 83 -78 169 -161 148z m82 -85 c30 -28 29 -59 -1 -88 -47 -43
-116 -18 -116 43 0 63 70 90 117 45z"/>
<path d="M5745 7377 c-17 -8 -36 -21 -44 -30 -7 -10 -23 -17 -35 -17 -30 0
-79 -33 -111 -74 -15 -20 -35 -36 -45 -36 -24 0 -67 -36 -85 -70 -8 -16 -15
-49 -15 -75 0 -25 -4 -45 -10 -45 -17 0 -59 -74 -66 -116 -4 -31 -1 -53 15
-88 20 -47 20 -47 1 -79 -24 -39 -26 -110 -5 -151 8 -15 15 -47 15 -70 0 -55
29 -106 75 -133 21 -11 43 -34 50 -50 15 -36 69 -82 105 -89 15 -4 34 -18 43
-34 21 -35 91 -70 142 -70 56 0 122 35 153 83 l27 41 3 501 3 501 -23 34 c-13
18 -35 42 -49 53 -34 24 -105 31 -144 14z m33 -79 c17 -17 15 -43 -4 -59 -13
-11 -19 -10 -37 1 -12 7 -33 16 -47 21 l-25 7 26 1 c14 1 34 10 44 21 21 23
27 24 43 8z m55 -129 c15 -23 -20 -88 -62 -116 -38 -25 -107 -31 -144 -12 -60
31 -82 74 -52 99 13 10 22 8 53 -14 21 -14 49 -26 63 -26 25 0 69 32 69 50 0
15 32 41 48 38 8 -2 19 -10 25 -19z m-283 -141 c66 -45 97 -119 65 -151 -22
-23 -54 -6 -62 34 -7 36 -46 69 -82 69 l-26 0 24 19 c16 12 22 24 18 35 -9 24
23 21 63 -6z m271 -77 c52 -53 29 -141 -42 -156 -59 -13 -82 55 -24 69 32 8
32 34 0 46 -31 12 -41 35 -25 55 20 24 59 18 91 -14z m-321 -173 c63 -43 91
-136 49 -158 -25 -14 -44 -1 -54 38 -8 32 -43 72 -63 72 -13 0 -12 3 1 18 10
10 17 26 17 35 0 23 11 21 50 -5z m340 -43 c18 -21 8 -48 -22 -63 -32 -15 -28
-37 8 -46 20 -5 25 -12 22 -34 -2 -22 -9 -28 -36 -30 -42 -4 -92 42 -92 86 0
63 87 127 120 87z m-169 -115 c22 -12 25 -42 7 -58 -7 -6 -26 -12 -43 -14 -26
-3 -31 -8 -35 -38 -4 -27 -10 -36 -29 -38 -28 -4 -41 12 -40 53 0 76 77 128
140 95z m34 -125 c44 -46 53 -99 27 -158 -25 -56 -53 -74 -70 -46 -7 11 -23
19 -39 19 -26 0 -26 0 8 23 43 29 52 84 20 116 -24 24 -27 51 -9 69 18 18 28
15 63 -23z"/>
<path d="M6123 7370 c-25 -11 -51 -33 -63 -52 -19 -32 -20 -49 -20 -530 0
-328 4 -506 11 -525 33 -88 153 -137 243 -99 18 8 46 30 62 50 16 20 36 36 45
36 30 0 97 58 110 94 7 20 19 36 26 36 7 0 28 14 48 31 36 32 61 95 52 130 -3
10 4 35 14 56 25 48 24 94 -2 144 -19 38 -19 43 -5 74 19 38 21 117 5 148 -6
12 -23 34 -37 49 -19 21 -26 39 -27 76 -1 27 -10 60 -20 75 -18 28 -62 57 -87
57 -7 0 -23 16 -36 35 -26 40 -76 75 -109 75 -12 0 -25 5 -29 11 -10 17 -85
49 -114 49 -14 0 -44 -9 -67 -20z m142 -80 c10 -11 30 -20 44 -20 24 -1 23 -2
-9 -14 -19 -7 -42 -16 -51 -20 -16 -7 -49 16 -49 34 0 11 29 40 39 40 4 0 16
-9 26 -20z m-34 -135 c36 -61 87 -72 137 -30 33 27 57 25 68 -7 3 -12 -1 -27
-13 -40 -66 -74 -191 -61 -243 24 -23 38 -25 59 -8 76 20 20 38 14 59 -23z
m279 -124 c0 -10 10 -26 23 -34 l22 -16 -28 0 c-34 -1 -87 -50 -87 -80 0 -26
-30 -43 -53 -30 -43 25 -1 130 65 162 43 22 58 21 58 -2z m-242 -68 c13 -25 4
-43 -24 -53 -32 -13 -30 -31 6 -52 17 -9 30 -21 30 -27 0 -16 -30 -41 -49 -41
-25 0 -71 38 -82 68 -12 32 5 87 34 107 29 20 74 19 85 -2z m276 -177 c-3 -8
5 -23 17 -35 19 -18 20 -21 5 -21 -25 0 -66 -45 -66 -74 0 -30 -28 -49 -53
-35 -41 23 -7 121 55 159 39 24 49 25 42 6z m-323 -52 c17 -8 37 -30 45 -50
12 -29 12 -39 0 -68 -16 -39 -42 -56 -84 -56 -49 0 -53 52 -6 71 26 9 33 39
10 39 -16 0 -46 26 -46 40 0 12 29 40 41 40 6 0 24 -7 40 -16z m215 -135 c43
-41 40 -129 -4 -129 -26 0 -42 20 -42 52 0 23 -4 28 -24 28 -13 0 -31 3 -40 6
-21 8 -20 50 2 64 25 15 81 4 108 -21z m-66 -105 c0 -9 -11 -29 -25 -46 -14
-16 -25 -36 -25 -43 0 -27 22 -61 48 -78 26 -16 26 -16 5 -17 -12 0 -29 -10
-37 -22 -15 -21 -16 -21 -37 -2 -28 24 -49 74 -49 114 0 64 64 139 101 119 10
-5 19 -17 19 -25z"/>
<path d="M5180 7275 c0 -20 5 -25 25 -25 14 0 25 1 25 3 0 2 -11 13 -25 25
l-25 22 0 -25z"/>
<path d="M6791 7274 c-22 -20 -23 -24 -8 -30 25 -9 47 3 47 25 0 30 -12 31
-39 5z"/>
<path d="M5120 7181 c-13 -25 -3 -51 21 -51 21 0 43 35 35 56 -8 20 -44 17
-56 -5z"/>
<path d="M6834 7175 c-8 -20 2 -44 21 -52 24 -8 39 12 31 41 -7 29 -43 36 -52
11z"/>
<path d="M5076 7058 c-17 -24 -6 -58 20 -58 22 0 40 46 24 65 -17 20 -26 19
-44 -7z"/>
<path d="M6882 7057 c-14 -17 -5 -54 16 -62 8 -3 22 1 31 9 12 12 12 20 3 41
-13 27 -33 32 -50 12z"/>
<path d="M4994 6881 c-46 -28 -64 -59 -64 -109 0 -79 53 -132 132 -132 64 0
128 65 128 130 0 41 -32 90 -71 110 -48 25 -85 25 -125 1z m111 -66 c30 -30
31 -54 4 -89 -25 -32 -64 -34 -96 -4 -22 21 -30 62 -15 84 10 16 44 33 65 34
10 0 29 -11 42 -25z"/>
<path d="M6881 6882 c-37 -20 -71 -73 -71 -110 0 -40 28 -91 62 -112 88 -54
198 6 198 107 0 50 -18 82 -59 110 -41 28 -85 29 -130 5z m92 -53 c29 -15 37
-28 37 -60 0 -63 -80 -92 -119 -43 -27 35 -26 59 4 89 27 28 45 31 78 14z"/>
<path d="M5070 6535 c-18 -21 3 -68 28 -63 21 4 29 57 10 69 -18 12 -24 11
-38 -6z"/>
<path d="M6874 6504 c-8 -30 6 -47 32 -42 13 2 20 13 22 36 3 28 0 32 -22 32
-19 0 -27 -7 -32 -26z"/>
<path d="M5115 6410 c-4 -6 -4 -22 -1 -36 7 -28 43 -33 53 -8 12 32 -35 71
-52 44z"/>
<path d="M6828 6385 c-8 -19 -8 -28 2 -40 17 -21 27 -19 46 10 13 20 14 28 4
40 -18 22 -39 18 -52 -10z"/>
<path d="M5174 6285 c-4 -8 -3 -22 0 -31 6 -15 9 -14 31 6 13 13 22 27 19 31
-9 15 -44 10 -50 -6z"/>
<path d="M6780 6282 c0 -5 9 -17 21 -28 21 -19 21 -19 18 6 -4 23 -39 43 -39
22z"/>
<path d="M5262 6210 c-33 -21 -62 -71 -62 -110 0 -39 37 -95 74 -113 49 -23
86 -21 127 6 41 28 59 60 59 110 0 102 -109 161 -198 107z m116 -56 c53 -37 7
-133 -56 -119 -56 12 -76 65 -42 108 25 31 63 36 98 11z"/>
<path d="M6594 6210 c-41 -27 -58 -69 -51 -126 12 -109 143 -151 216 -69 52
60 48 138 -10 191 -30 27 -117 30 -155 4z m125 -66 c27 -35 26 -59 -4 -89 -30
-30 -54 -31 -89 -4 -17 14 -26 30 -26 50 0 65 80 93 119 43z"/>
<path d="M6475 5987 c-10 -25 1 -47 25 -47 25 0 25 8 0 40 -17 22 -19 23 -25
7z"/>
<path d="M5484 5969 c-19 -21 -19 -21 6 -18 14 2 26 12 28 22 5 23 -11 22 -34
-4z"/>
<path d="M5945 5941 c-68 -31 -93 -105 -60 -175 20 -41 63 -66 115 -66 52 0
95 25 115 66 54 114 -57 228 -170 175z m107 -68 c42 -38 10 -113 -48 -113 -62
0 -97 68 -57 112 20 23 80 24 105 1z"/>
<path d="M5570 5935 c-11 -13 -10 -19 5 -35 24 -26 52 -25 60 1 11 35 -41 62
-65 34z"/>
<path d="M6362 5928 c-16 -16 -16 -45 1 -51 6 -2 22 0 35 4 17 6 22 15 20 31
-3 26 -36 36 -56 16z"/>
<path d="M5702 5888 c-7 -7 -12 -18 -12 -25 0 -15 47 -36 61 -27 12 7 12 54 0
54 -5 0 -15 2 -23 5 -7 3 -19 0 -26 -7z"/>
<path d="M7400 5805 l0 -95 1425 0 1425 0 0 95 0 95 -1425 0 -1425 0 0 -95z"/>
<path d="M6231 5876 c-17 -20 -7 -46 18 -46 23 0 53 27 48 44 -6 17 -52 19
-66 2z"/>
<path d="M1750 5785 l0 -95 1425 0 1425 0 0 95 0 95 -1425 0 -1425 0 0 -95z"/>
<path d="M5110 5185 c-151 -43 -238 -160 -228 -310 9 -135 72 -200 253 -261
186 -62 219 -87 217 -168 -1 -95 -62 -145 -177 -146 -62 0 -133 26 -196 71
-43 30 -69 22 -106 -36 -18 -27 -32 -54 -30 -60 7 -21 112 -85 176 -107 50
-17 88 -22 156 -22 119 0 189 27 261 98 64 65 89 130 89 237 -1 67 -4 82 -31
125 -39 64 -102 105 -221 144 -171 56 -223 95 -223 167 0 40 32 87 73 106 61
29 140 22 229 -19 89 -42 94 -41 134 38 l24 48 -41 30 c-93 67 -249 95 -359
65z"/>
<path d="M6743 5190 c-53 -11 -113 -42 -157 -81 -110 -96 -121 -295 -23 -397
42 -44 84 -65 219 -109 92 -29 120 -43 151 -73 32 -32 37 -44 37 -82 0 -92
-68 -148 -178 -148 -68 0 -111 14 -184 62 -62 39 -84 33 -125 -34 l-32 -53 27
-22 c92 -78 260 -125 375 -106 174 29 275 137 285 303 10 169 -56 239 -303
320 -126 42 -165 75 -165 143 0 82 60 127 169 127 49 0 72 -6 127 -35 37 -19
73 -35 80 -35 14 0 74 95 74 116 0 17 -86 69 -143 88 -60 20 -178 28 -234 16z"/>
<path d="M5845 4868 l-240 -323 2 -53 c2 -93 -1 -92 265 -92 l228 0 0 -125 0
-125 70 0 70 0 0 125 0 124 63 3 62 3 3 68 3 67 -66 0 -65 0 0 325 0 325 -78
0 -77 0 -240 -322z m252 -325 c-2 -2 -75 -2 -161 -1 l-157 3 158 220 158 220
3 -219 c1 -120 1 -221 -1 -223z"/>
</g>
</svg>
